<?xml version="1.0" encoding="UTF-8"?>
<svg id="Logo" xmlns="http://www.w3.org/2000/svg" version="1.1" viewBox="0 0 459.21 141.73">
  <!-- Generator: Adobe Illustrator 29.3.1, SVG Export Plug-In . SVG Version: 2.1.0 Build 151)  -->
  <defs>
    <style>
      .st0, .st1 {
        fill: #82bb24;
      }

      .st2, .st3 {
        fill: #fff;
      }

      .st3, .st4, .st1 {
        fill-rule: evenodd;
      }

      .st4 {
        fill: #dd0029;
      }
    </style>
  </defs>
  <path class="st2" d="M305.75,75.02h-11.34s-3.26,0-4.84,2.49c-2.65-1.28-5.92-2.07-10-2.07h-.13s-7.77,0-13.86,4.74c-.63-1.55-2.03-3.27-5.15-3.27h-.03c4.17-1.36,8.57-3.46,13.12-6.81,19.04-14.68,14.52-39.04,2.42-47.19-8.07-5.57-20.33-5.08-29.36-.56-3.07,1.53-7.99.89-7.99-2.66,0-6.94-3.55-8.15-9.36-7.1-4.84.97-13.23,5.08-12.58.97,1.69-11.21-8.31-14.52-14.6-8.07-2.34-2.02-6.53-2.9-10.24.89-.81,1.05-1.45,1.53-2.66,1.77-.97.08-13.87,2.9-13.87,2.9-1.37.16-5.32,1.37-7.42,6.45-.48,1.05-1.37,1.94-2.58,1.29-3.55-1.86-8.55-3.71-12.74-4.19-6.78-.81-13.87.65-18.71,4.84-3.31-3.95-8.39-6.7-15.57-6.45-3.23.16-46.79,2.26-49.45,2.58-14.12,1.53-21.3,11.45-21.3,23.8,0,11.05,6.94,22.34,21.46,21.86,4.76-.16,9.76-.56,15.25-1.13,3.07-.4,4.44,1.29,4.6,2.58.53,3.89,3.33,6.44,6.9,7.66v2.7s.15,2.3-1.44,2.29c-1.74,0-1.58-.07-3.76-.07h-8.98s-3.82,0-5.18,3.14c-2.67-1.78-6.23-2.97-10.98-2.97h-1.84s-9.09,0-14.69,6.29c-5.01-4.15-11.69-6.71-19.05-6.71-15.54,0-28.1,8.75-28.13,25.23-.03,15.78,12.6,25.23,28.13,25.23,7.31,0,13.95-2.52,18.95-6.62,2.75,3.59,7.28,6.57,14.79,6.57h1.84s6.12,0,11.42-3.48c.77,1.28,2.16,2.46,4.75,2.46h8.98s3.98-.01,5.26-3.36c.19,1.13.95,3.36,3.93,3.36h22.52s3.77-.03,3.96-3.73c3.5,2.8,8.39,4.76,15.25,4.76h6.03s8.85-.01,15.8-5.38c.4,1.68,1.64,4.28,5.48,4.28h20.45s4.65-.02,5.52-4.24c.41,1.68,1.65,4.24,5.47,4.24h8.15s4.68-.02,5.52-4.28c.4,1.68,1.63,4.28,5.48,4.28h37.63c.55,4.37,3.28,15.2,16.86,15.2h20.61s17.01,0,17.01-17.01v-3.86h0v-37.95s0-5.67-5.67-5.67Z"/>
  <g>
    <path class="st0" d="M48.11,93.55c-.51-8.01-8.58-12.92-19.32-12.92-12.98,0-19.52,9.66-19.52,19.32s6.54,19.32,19.52,19.32c11.49,0,18.22-4.65,19.25-13.15.13-1.07-.69-1.23-.69-1.23h-11.06s-.8.01-.97,1.11c-.42,2.8-2.08,6-6.53,6-5.58,0-5.66-9.22-6.01-12.56.17-2.83.26-11.55,5.84-11.55,4.55,0,6.2,2.94,6.55,5.69.04.31.24.91.91.91s10.26-.02,11.23,0c.65.01.79-.71.8-.95h0Z"/>
    <path class="st0" d="M199.48,81.94s-1.42,0-1.42,1.42v33.62s0,1.42,1.42,1.42h10.24s1.42,0,1.42-1.42v-33.62s0-1.42-1.42-1.42h-10.24Z"/>
    <path class="st0" d="M304.97,104.82v-21.41s0-1.42-1.42-1.42h-10.24s-1.42,0-1.42,1.42v2.79h0v1.49s-.05-.16-.17-.39c-2.09-3.7-5.84-5.3-11.68-5.3-12.2,0-18.56,9.37-18.56,18.66s6.1,18.16,17.95,18.16c4.97,0,9.61-1.52,12.32-5.08,0,0,1.02,12.92-8.92,12.92-3.1,0-6.13-.93-7-3.31-.13-.36-.24-1.2-1.25-1.2h-10.27c-.91,0-1.05.82-1,1.21,1.05,8.76,10.96,10.56,20.22,10.56,19.17.15,21.44-9.15,21.44-17.65v-11.4s0-.03,0-.04h0ZM291.89,100.72c0,4.72-1.31,10.82-8.45,10.82s-8.45-6.1-8.45-10.82c0-5.38,1.31-11.48,8.45-11.48s8.45,6.1,8.45,11.48h0Z"/>
    <path class="st0" d="M258.2,97.14s0-.02,0-.05v-2.43c0-1.24-.17-3.56-.87-5.81-1.57-5.3-10.02-7.99-14.38-7.99-6.62,0-10.72,2.18-13.42,5.52-.06-.08-.09-.11-.11-.14v-2.88s0-1.42-1.42-1.42h-10.24s-1.42,0-1.42,1.42v33.62s0,1.42,1.42,1.42h10.24s1.42,0,1.42-1.42v-.11h.02v-20.4c.18-5.3,3.75-8.35,7.84-8.35,6.45,0,7.76,4.43,7.84,8.35v19.24h0v1.27s0,1.42,1.42,1.42h10.24s1.42,0,1.42-1.42v-19.85h0Z"/>
    <path class="st0" d="M169.53,118.4h10.24s1.42,0,1.42-1.42v-17.14c0-2.64,1.95-8.68,8.08-8.68.72,0,2.49,0,2.49,0,.02,0,.04,0,.06,0h1.67s1.42,0,1.42-1.42v-6.83s0-1.42-1.42-1.42h-.48c-.26-.01-.48,0-.72,0h-.47s-.02,0-.07,0c-4.92.07-7.77,1.29-10.56,5.11v-3.26s0-1.42-1.42-1.42h-10.24s-1.42,0-1.42,1.42v5.7s-.02.09-.02.14c0,2.54.02,4.82.02,6.89v20.88s0,1.42,1.42,1.42h0Z"/>
    <path class="st0" d="M92.45,116.98v-33.62s0-1.42-1.42-1.42h-10.24s-1.42,0-1.42,1.42v7.21h0v-2.78h-.17c-2.09-3.7-5.84-5.3-11.68-5.3-12.2,0-18.56,9.37-18.56,18.66s6.1,18.16,17.95,18.16c4.97,0,9.59-1.45,12.29-5.01h.17s0,0,0,0v2.68s0,1.42,1.42,1.42h10.24s1.42,0,1.42-1.42h0ZM79.37,101.22c0,4.72-1.31,10.82-8.45,10.82s-8.45-6.1-8.45-10.82c0-5.37,1.31-11.47,8.45-11.47s8.45,6.1,8.45,11.47h0Z"/>
    <path class="st0" d="M165.2,101.4c0-1.95-.06-3.55-.34-5.4-.34-2.31-.94-4.48-2.13-6.5-3.58-6.35-10.22-8.67-18.23-8.67-13.03,0-20.53,8.38-20.53,19.28,0,12.13,5.88,19.14,20.53,19.14,1.34,0,2.64-.07,3.9-.18v.02c7.67-.79,14.46-3.82,15.71-10.76.05-.27-.12-.82-.66-.82h-9.83c-.65,0-.92.39-1,.57-.7,1.65-2.43,2.72-4.12,3.36-1.08.39-2.4.58-4.02.58-6.56,0-7.33-4.41-7.33-9.1h26.58c.91,0,1.44-.78,1.44-1.53h0ZM152,95.7h-14.82c.17-3.97,1.45-7.65,7.33-7.65,6.22,0,7.49,3.68,7.49,7.65h0Z"/>
    <path class="st0" d="M122.66,87.9v-5.22s0-.98-.98-.98h-.52s-8.26,0-8.26,0l-.06-.02v-9.77s0-.98-.94-.7l-10.93,3.28s-.94.28-.94,1.26v5.95h-.07s-2.13,0-2.13,0h0s-.42,0-.42,0c-.98,0-.98.98-.98.98v5.22c0,.98.98.98.98.98h.54s2.01,0,2.01,0v17.76c0,7.84,2.16,12.22,12.25,12.22,1.81,0,8.71-.5,10.18-1.08h-.01s.02-.02.03-.02v-5.28s0-.98-.68-.94c-.68.03-2.05.18-3.42.18-.86,0-1.55-.07-2.17-.18v.04s-.01-.02-.02-.02c-2.65-.45-3.22-2.05-3.22-5.92v-16.75h7.18s1.6,0,1.6,0c0,0,.98,0,.98-.98h0Z"/>
  </g>
  <path class="st4" d="M258.11,26.14c-10.24,1.05-19.04,6.94-19.04,18.23s8.79,15.25,19.04,14.2c10.24-1.05,19.2-6.94,19.04-18.23-.16-10.32-8.79-15.25-19.04-14.2ZM251.82,43c0-4.36,1.13-9.6,6.29-10.16,5.24-.56,6.29,4.52,6.29,8.87s-1.13,9.6-6.29,10.16c-5.24.56-6.29-4.52-6.29-8.87ZM237.38,52.2c-1.05.08-2.02.08-3.15.16-1.69,0-2.26-1.37-2.34-2.66-.08-.89,0-14.12,0-14.12l6.13-.08c.56,0,.97-.48.97-1.05v-5.32c0-.56-.48-.89-.97-.89h-6.13v-8.07c0-.56-.4-.89-1.37-.65l-9.84,1.86c-.81.16-1.13.48-1.13,1.05v6.05l-5.24.08c-.81,0-.97.48-.97.97v5.32c0,.56.48.97.97.97l5.24-.08s-.08,15.81,0,16.7c.65,6.61,5.24,7.34,12.66,7.26,1.53,0,3.07-.16,5.32-.48.81-.16,1.21-.56,1.21-1.13v-5.08c-.16-.48-.4-.89-1.37-.81ZM198.26,56.87c0,.56.48,1.05.97,1.05l10.41.73c.56,0,.97-.4.97-.97v-28.55c0-.56-.48-1.05-.97-1.05l-10.41-.73c-.56,0-.97.4-.97.97v28.56ZM175.75,32.27v13.71c-.08,9.28,4.44,10.97,12.83,11.86,1.53.16,2.9.24,5.16.16.81,0,1.21-.4,1.21-.97v-5.08c0-.4-.24-.89-1.21-.89-1.05-.08-2.02-.16-3.15-.32-1.13-.08-2.18-.97-2.34-2.9-.08-2.5-.08-5.65-.08-5.65v-8.55l6.29.65c.56.08.97-.32.97-.89v-5.32c0-.56-.48-1.05-.97-1.13l-6.13-.65v-8.71c0-.56-.4-1.13-1.37-1.05l-9.84,2.02c-.73.16-1.13.56-1.13,1.13v5.32l-5.08-.56c-.56-.08-.97.32-.97.89v5.32c0,.56.48,1.05.97,1.13l4.84.48ZM146.47,33.4l11.45.73c0-1.61-.48-3.31-1.53-4.68-.97-1.37-2.42-2.26-4.28-2.26-4.36,0-5.32,2.82-5.65,6.21ZM169.46,38.97c.08,1.05-.89,2.02-2.1,2.02l-21.21-1.37c-.08,3.95,1.05,7.58,5.65,7.91,3.07.16,5.08-1.05,5.81-3.23.16-.65.48-.97,1.05-.89l9.03.56c.81.08,1.13,1.05.89,1.94-.81,3.15-2.74,5-5.49,6.29-2.9,1.53-6.53,2.5-10.32,2.26-13.31-.89-18.23-6.94-18.31-18.88-.08-8.95,6.94-14.68,17.42-14.04,12.74.65,17.26,7.02,17.58,17.42ZM114.2,27.11c-5.24.16-5.97,5.81-5.97,9.68s.81,9.44,5.97,9.28c5.24-.16,5.97-5.81,5.97-9.68s-.73-9.44-5.97-9.28ZM106.86,63.49l-10.41.32c-.56,0-.97-.4-.97-.97V22.59c0-.56.4-1.05.97-1.05l10.41-.4c.56,0,.97.4.97.97v1.37c3.23-2.58,6.37-3.47,10.73-3.63,9.68-.32,13.95,7.26,13.95,15.25,0,8.95-4.84,16.78-15.33,17.18-3.63.16-6.61-.48-9.28-2.26l-.16,12.34c.16.65-.32,1.05-.89,1.13ZM80.49,53.49c-.56,0-.97-.4-.97-.97v-3.31s-3.71,5.49-11.13,5.81c-9.12.48-14.28-6.78-14.28-15.41,0-9.44,5.57-16.54,15.08-17.1,4.6-.24,7.5.48,10.16,2.9l.16-1.21c.16-.81.4-1.37,1.13-1.45l10.24-.65c.56,0,.97.4.97.97v28.64c0,.56-.4,1.05-.97,1.05l-10.41.73ZM72.99,28.88c-5.24.32-6.05,6.05-6.05,10s.81,9.6,6.05,9.28c5.24-.32,6.05-6.05,6.05-10s-.81-9.6-6.05-9.28Z"/>
  <path id="SVGID" class="st1" d="M200.76,22.27c-2.34-1.61-5.4-3.87-5.89-8.23-.24-2.34,1.61-4.68,3.95-5.16,1.69-.32,3.47.81,4.36,2.02.4-1.45,1.69-2.58,3.23-2.9,2.18-.48,4.28.4,5.32,2.42.65,1.21,1.37,3.79-.89,6.37-.65.73-2.02,2.42-2.5,3.15-.56.81-1.13,1.86-2.1,4.11-.24.65-.48.65-.73.56-.08-.16-2.42-.81-4.76-2.34Z"/>
  <path id="Wischer" class="st0" d="M120.25,61.47l-.08-.24-.08-.24v-4.76l.08-.48.08-.32.16-.24.32-.24c.4-.16.56-.16,1.05-.16,3.47.16,6.13.56,7.5.65,6.37.65,13.55,2.1,20.97,3.23,10.08,1.45,71.55,12.58,96.31,9.03,17.99-2.5,26.94-7.91,32.43-17.83,1.05-2.02,1.45-2.9,1.86-4.36.16.73-.56,3.07-1.21,5-3.87,11.62-14.76,20.81-34.93,22.99-22.02,2.42-47.35-.32-73.57-3.87-13.23-1.77-25.49-3.87-36.54-5.49-4.76-.73-8.39-1.21-12.74-1.61-.32,0-1.21-.16-1.53-.65l-.08-.4Z"/>
  <g>
    <circle class="st2" cx="388.55" cy="70.87" r="69.04"/>
    <circle class="st0" cx="388.55" cy="70.87" r="61.67"/>
    <g>
      <g>
        <path class="st2" d="M402.85,58.48s-1.42,0-1.42,1.42v33.62s0,1.42,1.42,1.42h10.24s1.42,0,1.42-1.42v-33.62s0-1.42-1.42-1.42h-10.24Z"/>
        <path class="st2" d="M396.16,93.51v-33.62s0-1.42-1.42-1.42h-10.24s-1.42,0-1.42,1.42v4.43h-.18c-2.09-3.7-5.84-5.3-11.68-5.3-12.2,0-18.56,9.37-18.56,18.66s6.1,18.16,17.95,18.16c4.97,0,9.59-1.45,12.29-5.01h.17s0,0,0,0v2.68s0,1.42,1.42,1.42h10.24s1.42,0,1.42-1.42h0ZM383.09,77.75c0,4.72-1.31,10.82-8.45,10.82s-8.45-6.1-8.45-10.82c0-5.37,1.31-11.47,8.45-11.47s8.45,6.1,8.45,11.47h0Z"/>
      </g>
      <path id="SVGID1" data-name="SVGID" class="st3" d="M403.86,53.34c-2.34-1.61-5.4-3.87-5.89-8.23-.24-2.34,1.61-4.68,3.95-5.16,1.69-.32,3.47.81,4.36,2.02.4-1.45,1.69-2.58,3.23-2.9,2.18-.48,4.28.4,5.32,2.42.65,1.21,1.37,3.79-.89,6.37-.65.73-2.02,2.42-2.5,3.15-.56.81-1.13,1.86-2.1,4.11-.24.65-.48.65-.73.56-.08-.16-2.42-.81-4.76-2.34Z"/>
    </g>
  </g>
</svg>