<?xml version="1.0" encoding="UTF-8"?>
<svg version="1.1" xmlns="http://www.w3.org/2000/svg" width="258" height="115">
<path d="M0 0 C2.41823431 2.64494378 2.95036419 4.2554628 3.1875 7.8125 C3.125625 8.534375 3.06375 9.25625 3 10 C4.175625 9.67 5.35125 9.34 6.5625 9 C10.46437532 8.03836761 13.96513949 7.60442544 18 8 C20.59461433 9.64325574 20.92391959 10.70259478 21.6875 13.6875 C21.790625 14.450625 21.89375 15.21375 22 16 C25.3462238 15.49806643 28.443437 14.86471414 31.6875 13.875 C37.97551973 12.26980494 44.30970791 13.05341575 50.375 15.1875 C56.1822864 19.19729299 58.78844223 23.55858047 60.55859375 30.28515625 C61.67062874 37.12466349 60.84296931 44.00116513 57.4375 50.0859375 C53.54203879 55.27282879 48.18006712 59.17381406 43 63 C43.84046875 62.67128906 44.6809375 62.34257813 45.546875 62.00390625 C49.3128058 60.90905985 52.34034549 60.83351983 56.25 60.9375 C60.78914551 61.23902866 60.78914551 61.23902866 65 60 C67.14323306 59.87728492 69.29079002 59.82446605 71.4375 59.8125 C72.59121094 59.79832031 73.74492187 59.78414062 74.93359375 59.76953125 C78 60 78 60 81 62 C81.39440918 63.9085083 81.39440918 63.9085083 81.41992188 66.26269531 C81.43583374 67.14411194 81.45174561 68.02552856 81.46813965 68.93365479 C81.46844177 70.36641754 81.46844177 70.36641754 81.46875 71.828125 C81.47636353 72.80988708 81.48397705 73.79164917 81.49182129 74.80316162 C81.50264264 76.88453628 81.50546717 78.96596533 81.50097656 81.04736328 C81.50000795 84.22391372 81.54152894 87.39801974 81.5859375 90.57421875 C81.59114721 92.59634913 81.59383265 94.61848791 81.59375 96.640625 C81.61014526 97.58770325 81.62654053 98.53478149 81.64343262 99.51055908 C81.59806071 103.86969969 81.47331762 107.01998083 78.71289062 110.52246094 C72.41045676 116.27813938 66.3744885 115.36665876 58.125 115.375 C56.85785156 115.39949219 55.59070313 115.42398438 54.28515625 115.44921875 C42.61512719 115.48603272 42.61512719 115.48603272 38 111 C35 106 35 106 35 103 C34.01604248 103.00523682 33.03208496 103.01047363 32.01831055 103.01586914 C28.36744089 103.03397029 24.71657521 103.04545075 21.06567383 103.05493164 C19.48558892 103.05996014 17.90550866 103.06678378 16.32543945 103.07543945 C14.05418754 103.08756992 11.78299715 103.09324313 9.51171875 103.09765625 C8.45219246 103.10539818 8.45219246 103.10539818 7.3712616 103.11329651 C4.29745609 103.11364803 1.9409558 102.9803186 -1 102 C-1.99 102.495 -1.99 102.495 -3 103 C-4.81041793 103.09632897 -6.62452753 103.12981533 -8.4375 103.125 C-9.40558594 103.12757812 -10.37367188 103.13015625 -11.37109375 103.1328125 C-14 103 -14 103 -17 102 C-17.99 102.495 -17.99 102.495 -19 103 C-20.57062514 103.09572577 -22.1452118 103.1307405 -23.71875 103.1328125 C-24.65074219 103.13410156 -25.58273438 103.13539062 -26.54296875 103.13671875 C-27.51878906 103.13285156 -28.49460938 103.12898438 -29.5 103.125 C-30.96373047 103.13080078 -30.96373047 103.13080078 -32.45703125 103.13671875 C-33.85501953 103.13478516 -33.85501953 103.13478516 -35.28125 103.1328125 C-36.56612305 103.13112061 -36.56612305 103.13112061 -37.87695312 103.12939453 C-40 103 -40 103 -42 102 C-42 101.34 -42 100.68 -42 100 C-43.051875 100.474375 -44.10375 100.94875 -45.1875 101.4375 C-53.79646653 105.08041598 -61.98106378 104.48340726 -70.93359375 102.33984375 C-73.05555824 101.78343148 -73.05555824 101.78343148 -75 103 C-77.82085529 103.0990889 -80.61649008 103.13982248 -83.4375 103.1328125 C-84.27337646 103.13376923 -85.10925293 103.13472595 -85.97045898 103.13571167 C-87.73909582 103.13639268 -89.50773515 103.13454391 -91.27636719 103.13037109 C-93.98898921 103.12502171 -96.70144565 103.13031875 -99.4140625 103.13671875 C-101.1302087 103.13605795 -102.8463548 103.13477676 -104.5625 103.1328125 C-105.7844104 103.13584885 -105.7844104 103.13584885 -107.03100586 103.13894653 C-112.77008072 103.11495964 -112.77008072 103.11495964 -115 102 C-115.99 102.33 -116.98 102.66 -118 103 C-122.71036747 104.44858581 -127.22539751 104.05647293 -132 103 C-133.2684375 102.13375 -133.2684375 102.13375 -134.5625 101.25 C-136.87885686 99.74188536 -136.87885686 99.74188536 -139.15625 100.4375 C-140.7232057 100.96660192 -142.27826249 101.53283163 -143.81640625 102.140625 C-150.84432133 104.90653076 -157.38532399 104.40392617 -164.49609375 102.11328125 C-169.44391121 99.91339361 -173.67154419 96.54007674 -176.19921875 91.70703125 C-177.176372 88.4037766 -177.30128352 85.50596006 -177.3125 82.0625 C-177.32925781 80.87785156 -177.34601563 79.69320312 -177.36328125 78.47265625 C-176.81954491 73.27500456 -174.87734596 69.2683354 -170.9375 65.8125 C-165.12277351 61.18022313 -158.79330103 59.64147182 -151.4375 60.125 C-147.02580451 60.66088392 -143.20503631 61.82903565 -139.16796875 63.671875 C-136.81399163 64.24393694 -136.81399163 64.24393694 -134.23828125 62.5859375 C-130.35825057 60.68570534 -127.2032052 60.70208789 -123 60.875 C-121.5013881 60.90783909 -120.00267726 60.93641245 -118.50390625 60.9609375 C-117.75512207 60.97350586 -117.00633789 60.98607422 -116.23486328 60.99902344 C-110.8081513 61.00139473 -105.40193079 60.47941066 -100 60 C-99.67 59.01 -99.34 58.02 -99 57 C-100.175625 56.6596875 -100.175625 56.6596875 -101.375 56.3125 C-104.65858937 54.67070532 -104.83731147 53.36310374 -106 50 C-106.56396484 50.02094727 -107.12792969 50.04189453 -107.70898438 50.06347656 C-110.30580249 50.14748501 -112.90233362 50.19892229 -115.5 50.25 C-116.8303125 50.30027344 -116.8303125 50.30027344 -118.1875 50.3515625 C-125.25895178 50.45555444 -130.49714958 49.07958933 -135.875 44.3515625 C-139.95614806 38.08813388 -140.01251025 31.27319864 -139 24 C-136.71738852 18.50309889 -134.00264271 15.14219051 -129 12 C-122.65343997 10.0674806 -115.96443532 9.60742349 -109.37109375 9.26171875 C-108.49655045 9.21304153 -107.62200714 9.16436432 -106.72096252 9.11421204 C-104.88848588 9.01542924 -103.0557878 8.9206768 -101.22290039 8.82983398 C-98.43961694 8.68760818 -95.65869627 8.51903948 -92.87695312 8.34960938 C-91.08341691 8.25619384 -89.28979832 8.1643439 -87.49609375 8.07421875 C-86.26758949 7.99478279 -86.26758949 7.99478279 -85.01426697 7.91374207 C-79.09970649 7.65991692 -74.48328387 8.84830638 -69 11 C-65.26991338 12.24336221 -64.54447602 11.41881482 -61 10 C-53.06111163 9.20816787 -46.36428492 10.00435868 -39 13 C-38.71125 12.38125 -38.4225 11.7625 -38.125 11.125 C-37 9 -37 9 -35 7 C-32.52126222 6.26470814 -30.07264115 5.60451188 -27.5625 5 C-22.02833801 3.66011657 -22.02833801 3.66011657 -17 1 C-14.66702567 0.95907063 -12.33294775 0.95758277 -10 1 C-6.7990357 -0.60048215 -3.4637866 -0.63042333 0 0 Z " fill="#FBFBF8" transform="translate(177,0)"/>
<path d="M0 0 C2.33984375 1.5234375 2.33984375 1.5234375 4 3 C4.33 2.01 4.66 1.02 5 0 C8.63 0 12.26 0 16 0 C16.09961729 4.41074704 16.17181669 8.82088095 16.21972656 13.23242188 C16.23971919 14.7299339 16.26692299 16.22736908 16.30175781 17.72460938 C16.66875272 33.91556098 16.66875272 33.91556098 12 40 C7.13118205 42.95878828 2.53372662 43.49607135 -3.0625 43.4375 C-4.0844043 43.4674707 -4.0844043 43.4674707 -5.12695312 43.49804688 C-11.23686148 43.49217761 -14.7797589 41.2202411 -19 37 C-19 35.68 -19 34.36 -19 33 C-17.39667209 32.91878076 -15.79215974 32.86070866 -14.1875 32.8125 C-12.84751953 32.76029297 -12.84751953 32.76029297 -11.48046875 32.70703125 C-8.51834852 33.05688797 -7.93921132 33.84964246 -6 36 C-2.90773387 36.38653327 -0.91784513 36.5900433 1.75 34.875 C3.40483154 32.39275268 4.17581408 29.85295126 5 27 C4.29746094 27.4846875 3.59492188 27.969375 2.87109375 28.46875 C-1.92523895 31.02679411 -6.70266439 30.75368596 -12 30 C-15.94272318 28.27409977 -17.75654775 25.40837152 -19.9375 21.75 C-21.6459171 15.72029259 -21.13156069 11.18229561 -18.25 5.625 C-13.12144575 -0.35831329 -7.66545683 -1.16524083 0 0 Z " fill="#85BD2A" transform="translate(237,67)"/>
<path d="M0 0 C1.2684375 -0.02513672 1.2684375 -0.02513672 2.5625 -0.05078125 C5.45330535 0.38005993 6.82826275 1.40720274 9 3.3125 C9.33 2.3225 9.66 1.3325 10 0.3125 C13.63 0.3125 17.26 0.3125 21 0.3125 C21 10.2125 21 20.1125 21 30.3125 C17.37 30.3125 13.74 30.3125 10 30.3125 C9.67 29.6525 9.34 28.9925 9 28.3125 C8.175 28.8075 7.35 29.3025 6.5 29.8125 C2.10603975 31.69562582 -0.24868421 31.76500627 -5 31.3125 C-8.6891038 29.63563464 -11.33723849 27.35565601 -14 24.3125 C-15.64785194 19.36894419 -15.71157593 14.45978759 -15 9.3125 C-11.76309475 3.17608679 -6.91579967 0.03162713 0 0 Z " fill="#85BD2A" transform="translate(55,66.6875)"/>
<path d="M0 0 C3.62531608 1.8741654 5.69121639 4.07364917 7 8 C7.52438572 12.99455908 7.55003096 16.87956656 5.3125 21.4375 C2.36350265 24.70530788 0.2861225 26.74598639 -4.21484375 27.24609375 C-8.43393085 27.36234088 -10.38362393 27.41091738 -14 25 C-14 28.63 -14 32.26 -14 36 C-17.3 36 -20.6 36 -24 36 C-24 24.45 -24 12.9 -24 1 C-20.04 1 -16.08 1 -12 1 C-8.27287842 -0.86356079 -4.0579268 -0.56549975 0 0 Z " fill="#DD082E" transform="translate(102,15)"/>
<path d="M0 0 C1.5546875 1.015625 1.5546875 1.015625 3.9296875 3.203125 C4.826875 3.9765625 4.826875 3.9765625 5.7421875 4.765625 C8.91310223 8.60410073 7.9296875 12.09080512 7.9296875 17.203125 C0.3396875 17.203125 -7.2503125 17.203125 -15.0703125 17.203125 C-14.0803125 19.513125 -13.0903125 21.823125 -12.0703125 24.203125 C-7.83540091 24.62429085 -7.83540091 24.62429085 -4.2578125 22.703125 C-0.80201667 20.33343643 2.86058796 20.96836926 6.9296875 21.203125 C6.8046875 23.453125 6.8046875 23.453125 5.9296875 26.203125 C-0.83569304 31.49777064 -6.73847106 31.81008034 -15.0703125 31.203125 C-20.45954899 29.37463405 -23.53139456 26.28096089 -26.0703125 21.203125 C-26.66551994 15.59967207 -27.19185424 9.98962645 -23.9453125 5.140625 C-18.077144 -1.50564319 -8.32387061 -3.20390492 0 0 Z " fill="#84BC28" transform="translate(128.0703125,66.796875)"/>
<path d="M0 0 C0.77085938 -0.01417969 1.54171875 -0.02835938 2.3359375 -0.04296875 C4.84334888 0.20948393 6.45761902 0.93556533 8.625 2.1875 C8.625 1.5275 8.625 0.8675 8.625 0.1875 C11.925 0.1875 15.225 0.1875 18.625 0.1875 C18.625 8.4375 18.625 16.6875 18.625 25.1875 C13.675 25.6825 13.675 25.6825 8.625 26.1875 C8.295 25.5275 7.965 24.8675 7.625 24.1875 C6.965 24.6825 6.305 25.1775 5.625 25.6875 C1.89073742 27.55463129 -1.31760996 28.0512803 -5.375 27.1875 C-8.89574951 25.2070784 -11.07403891 23.09038327 -12.375 19.1875 C-12.95453691 14.58054834 -13.45275329 10.09097812 -11.10546875 5.9453125 C-7.66541125 1.91098716 -5.39071788 0.0447734 0 0 Z " fill="#DD092E" transform="translate(56.375,16.8125)"/>
<path d="M0 0 C0.33 0.66 0.66 1.32 1 2 C-2.36222304 9.77514079 -8.26967843 15.03133096 -15.9375 18.3125 C-38.5772883 27.27014579 -71.25962939 20.6458232 -94.73638916 17.32012939 C-97.12238099 16.98269236 -99.50909824 16.65078878 -101.89599609 16.31982422 C-111.9373435 14.92464488 -121.97134942 13.48369077 -132 12 C-132 9.69 -132 7.38 -132 5 C-119.99630364 5.5737166 -108.22802651 7.55798952 -96.375 9.4375 C-49.97347152 18.98474464 -49.97347152 18.98474464 -6.25 8.0625 C-3.49797468 5.71131315 -1.55643285 3.30741982 0 0 Z " fill="#86BD2C" transform="translate(231,39)"/>
<path d="M0 0 C4.2785568 1.55583884 6.65025092 3.11909139 9 7 C9.34057617 9.65722656 9.34057617 9.65722656 9.29296875 12.640625 C9.2784668 14.24550781 9.2784668 14.24550781 9.26367188 15.8828125 C9.23853516 16.99398437 9.21339844 18.10515625 9.1875 19.25 C9.16719727 20.93996094 9.16719727 20.93996094 9.14648438 22.6640625 C9.11116001 25.44291281 9.05735401 28.22151707 9 31 C5.37 31 1.74 31 -2 31 C-2.03738281 29.51886719 -2.07476562 28.03773437 -2.11328125 26.51171875 C-2.17893354 24.57028686 -2.24538113 22.62888174 -2.3125 20.6875 C-2.33505859 19.71103516 -2.35761719 18.73457031 -2.38085938 17.72851562 C-2.4340332 16.32182617 -2.4340332 16.32182617 -2.48828125 14.88671875 C-2.51446533 14.02264404 -2.54064941 13.15856934 -2.56762695 12.26831055 C-3.08659501 9.54570627 -3.77992344 8.62431083 -6 7 C-9.04211431 6.5832448 -9.04211431 6.5832448 -12 7 C-14.52128356 9.52128356 -14.29353069 10.51239013 -14.4140625 14.0078125 C-14.47207031 15.48701172 -14.47207031 15.48701172 -14.53125 16.99609375 C-14.57765625 18.54490234 -14.57765625 18.54490234 -14.625 20.125 C-14.68300781 21.68541016 -14.68300781 21.68541016 -14.7421875 23.27734375 C-14.83664329 25.85126402 -14.91941771 28.42560805 -15 31 C-18.63 31 -22.26 31 -26 31 C-26 21.1 -26 11.2 -26 1 C-22.37 1 -18.74 1 -15 1 C-15 1.66 -15 2.32 -15 3 C-14.38125 2.505 -13.7625 2.01 -13.125 1.5 C-8.7080447 -0.62013854 -4.82077241 -0.57169416 0 0 Z " fill="#84BC28" transform="translate(205,66)"/>
<path d="M0 0 C2.5890974 2.32354895 4.27796299 3.9650736 4.73828125 7.4921875 C4.77949707 16.5321907 4.77949707 16.5321907 1.4375 20.1875 C-3.9874779 25.19517191 -9.30358011 25.95668264 -16.5546875 25.6875 C-20.97719081 24.95233062 -22.67367396 23.55779705 -25.5625 20.1875 C-27.42237597 16.46774805 -26.99344573 12.2471337 -26.5625 8.1875 C-24.43533248 3.40137307 -21.5971197 0.96785418 -16.91015625 -1.1171875 C-10.97314358 -2.87557062 -5.51784216 -2.80732321 0 0 Z " fill="#DD082E" transform="translate(224.5625,21.8125)"/>
<path d="M0 0 C2.72655544 2.02743866 4.58527468 3.96292259 6.4375 6.8125 C6.4375 7.8025 6.4375 8.7925 6.4375 9.8125 C2.8075 9.8125 -0.8225 9.8125 -4.5625 9.8125 C-5.2225 8.4925 -5.8825 7.1725 -6.5625 5.8125 C-8.5425 5.8125 -10.5225 5.8125 -12.5625 5.8125 C-13.91082104 8.50914208 -13.73160682 10.67837521 -13.75 13.6875 C-13.77126953 15.26144531 -13.77126953 15.26144531 -13.79296875 16.8671875 C-13.56754937 19.74797071 -13.05214317 21.37490208 -11.5625 23.8125 C-9.11769921 23.62421228 -9.11769921 23.62421228 -6.5625 22.8125 C-5.9025 21.4925 -5.2425 20.1725 -4.5625 18.8125 C-1.2625 18.8125 2.0375 18.8125 5.4375 18.8125 C5.3125 22.0625 5.3125 22.0625 4.4375 25.8125 C-0.78115094 30.21936079 -5.60425368 31.18821828 -12.25 31.08984375 C-16.22201366 30.61347049 -18.33888971 29.21440571 -21.5625 26.8125 C-25.69739906 21.48065647 -27.01922521 17.54919682 -26.5625 10.8125 C-22.2730223 -1.55128867 -11.74346702 -3.91448901 0 0 Z " fill="#84BD29" transform="translate(32.5625,67.1875)"/>
<path d="M0 0 C3.97282203 2.25905567 6.15635816 4.75021632 8.1875 8.8125 C8.227492 10.81210012 8.23096799 12.81297242 8.1875 14.8125 C5.79158962 14.83962351 3.39599043 14.8593982 1 14.875 C0.32646484 14.88337891 -0.34707031 14.89175781 -1.04101562 14.90039062 C-4.76684131 14.91856538 -8.1913042 14.70549392 -11.8125 13.8125 C-10.8225 15.7925 -9.8325 17.7725 -8.8125 19.8125 C-6.39604218 19.97937448 -6.39604218 19.97937448 -3.8125 19.8125 C-3.1525 19.1525 -2.4925 18.4925 -1.8125 17.8125 C0.3515625 17.6171875 0.3515625 17.6171875 2.8125 17.6875 C4.03839844 17.71457031 4.03839844 17.71457031 5.2890625 17.7421875 C6.22878906 17.77699219 6.22878906 17.77699219 7.1875 17.8125 C7.1875 20.0625 7.1875 20.0625 6.1875 22.8125 C2.07123692 26.0254435 -2.5985953 27.50267188 -7.79296875 27.1953125 C-12.84633909 26.23742025 -16.6391951 24.31579691 -19.8125 20.25 C-21.23062144 15.37520755 -21.51081829 10.84653075 -20.8125 5.8125 C-16.13333355 -2.37604129 -8.2784885 -2.5785456 0 0 Z " fill="#DE0C31" transform="translate(131.8125,17.1875)"/>
<path d="M0 0 C0 2.97 0 5.94 0 9 C2.64 9 5.28 9 8 9 C8 10.65 8 12.3 8 14 C5.36 14 2.72 14 0 14 C0.33 19.94 0.66 25.88 1 32 C4.465 32.495 4.465 32.495 8 33 C8 34.98 8 36.96 8 39 C5.5622037 39.05397335 3.12560315 39.09365616 0.6875 39.125 C-0.00279297 39.14175781 -0.69308594 39.15851563 -1.40429688 39.17578125 C-5.17135396 39.21217794 -6.78431704 39.14378864 -10 37 C-10.96088383 34.11734851 -11.11670941 32.32337729 -11.09765625 29.33203125 C-11.09443359 28.43935547 -11.09121094 27.54667969 -11.08789062 26.62695312 C-11.07951172 25.69818359 -11.07113281 24.76941406 -11.0625 23.8125 C-11.05798828 22.87212891 -11.05347656 21.93175781 -11.04882812 20.96289062 C-11.03704626 18.64186288 -11.02059558 16.32096356 -11 14 C-11.99 14 -12.98 14 -14 14 C-14 12.35 -14 10.7 -14 9 C-13.01 9 -12.02 9 -11 9 C-11 6.69 -11 4.38 -11 2 C-3.375 0 -3.375 0 0 0 Z " fill="#85BD2B" transform="translate(93,58)"/>
<path d="M0 0 C0 2.64 0 5.28 0 8 C1.98 8 3.96 8 6 8 C6 9.98 6 11.96 6 14 C4.02 14 2.04 14 0 14 C0 18.62 0 23.24 0 28 C1.65 28 3.3 28 5 28 C5 29.98 5 31.96 5 34 C3.08529156 34.13547465 1.16781519 34.23220869 -0.75 34.3125 C-1.81734375 34.37050781 -2.8846875 34.42851563 -3.984375 34.48828125 C-7 34 -7 34 -9.375 31.96875 C-11.38975332 28.28795067 -11.45278848 25.26276843 -11.25 21.1875 C-11.23195312 20.49462891 -11.21390625 19.80175781 -11.1953125 19.08789062 C-11.14851064 17.39132336 -11.07677624 15.69547524 -11 14 C-12.65 14 -14.3 14 -16 14 C-16 12.02 -16 10.04 -16 8 C-14.35 8 -12.7 8 -11 8 C-11 6.02 -11 4.04 -11 2 C-3.375 0 -3.375 0 0 0 Z " fill="#DE0F33" transform="translate(192,14)"/>
<path d="M0 0 C0 2.64 0 5.28 0 8 C1.98 8 3.96 8 6 8 C6 10.31 6 12.62 6 15 C3.03 14.505 3.03 14.505 0 14 C0.33 18.29 0.66 22.58 1 27 C2.65 27.66 4.3 28.32 6 29 C6 30.98 6 32.96 6 35 C0.43012143 35.28809717 -3.19670476 35.20219683 -8 32 C-10.57551926 28.38035131 -10.22965233 24.50854497 -10.125 20.25 C-10.11597656 19.55261719 -10.10695312 18.85523437 -10.09765625 18.13671875 C-10.07419888 16.42433042 -10.03833104 14.71211996 -10 13 C-11.65 13 -13.3 13 -15 13 C-15 11.02 -15 9.04 -15 7 C-13.35 7 -11.7 7 -10 7 C-10 5.35 -10 3.7 -10 2 C-3.375 0 -3.375 0 0 0 Z " fill="#DE092E" transform="translate(155,12)"/>
<path d="M0 0 C0 2.64 0 5.28 0 8 C-1.093125 8.103125 -2.18625 8.20625 -3.3125 8.3125 C-7.43730347 9.06596767 -7.43730347 9.06596767 -10 12 C-10.50054751 14.11615844 -10.50054751 14.11615844 -10.51171875 16.44921875 C-10.54716797 17.29677734 -10.58261719 18.14433594 -10.61914062 19.01757812 C-10.65297852 20.33918945 -10.65297852 20.33918945 -10.6875 21.6875 C-10.73874023 23.02651367 -10.73874023 23.02651367 -10.79101562 24.39257812 C-10.87344467 26.59461121 -10.93840047 28.79728582 -11 31 C-14.63 31 -18.26 31 -22 31 C-22 21.1 -22 11.2 -22 1 C-17.33333333 1 -12.66666667 1 -8 1 C-5.29120665 -0.35439668 -2.99066732 -0.06501451 0 0 Z " fill="#85BD2A" transform="translate(161,66)"/>
<path d="M0 0 C3.3 0 6.6 0 10 0 C10 9.9 10 19.8 10 30 C6.7 30 3.4 30 0 30 C0 20.1 0 10.2 0 0 Z " fill="#81BB23" transform="translate(164,67)"/>
<path d="M0 0 C3.3 0 6.6 0 10 0 C10 8.58 10 17.16 10 26 C6.7 26 3.4 26 0 26 C0 17.42 0 8.84 0 0 Z " fill="#DD062C" transform="translate(164,21)"/>
<path d="M0 0 C1.9375 1.5625 1.9375 1.5625 3 4 C3.40649715 8.26822008 3.38703126 10.92997239 1.9375 14.9375 C0 17 0 17 -3.4375 18.0625 C-7 18 -7 18 -9.4375 16.75 C-11.94427934 12.33806837 -11.72677083 7.94503863 -11 3 C-8.20814937 -1.91365711 -5.11881627 -1.48911019 0 0 Z " fill="#F9FBF4" transform="translate(62,74)"/>
<path d="M0 0 C3.5625 0.5625 3.5625 0.5625 6 2.5625 C8.13166507 6.65529693 8.00016758 8.9669904 7.5625 13.5625 C6.55374788 16.37259519 6.22854583 17.22947708 3.5625 18.5625 C0.125 18.875 0.125 18.875 -3.4375 18.5625 C-5.5357941 16.45455857 -6.35449516 15.07029429 -6.8359375 12.125 C-6.82820312 11.279375 -6.82046875 10.43375 -6.8125 9.5625 C-6.82023438 8.716875 -6.82796875 7.87125 -6.8359375 7 C-6.08954957 2.43386208 -4.53715186 0.74244303 0 0 Z " fill="#FBFCF8" transform="translate(234.4375,72.4375)"/>
<path d="M0 0 C1.4540625 0.2165625 1.4540625 0.2165625 2.9375 0.4375 C5.42136059 4.16329089 5.3179212 6.02461402 4.9375 10.4375 C3.8125 13.375 3.8125 13.375 1.9375 15.4375 C-1.25 15.75 -1.25 15.75 -4.0625 15.4375 C-6.39729983 11.78937527 -6.44268947 8.69562212 -6.0625 4.4375 C-4.48283171 1.01488538 -3.76286553 0.53755222 0 0 Z " fill="#FCF0F1" transform="translate(214.0625,25.5625)"/>
<path d="M0 0 C2.5 0.125 2.5 0.125 3.5 1.125 C4.10535108 5.36245756 3.43647336 7.61371499 1 11 C0.18006717 12.05224714 -0.64899722 13.09771807 -1.5 14.125 C-8.42307692 11.04807692 -8.42307692 11.04807692 -10.5 7.125 C-10.75 4.4375 -10.75 4.4375 -10.5 2.125 C-10.17 1.795 -9.84 1.465 -9.5 1.125 C-7.5 1.125 -5.5 1.125 -3.5 1.125 C-2.5 0.125 -2.5 0.125 0 0 Z " fill="#85BD2A" transform="translate(171.5,4.875)"/>
<path d="M0 0 C2.4375 -0.4375 2.4375 -0.4375 5 0 C7.76320996 2.38207755 7.9864419 3.84814927 8.3125 7.5 C7.84703633 12.71319312 7.84703633 12.71319312 6 15 C3.375 15.75 3.375 15.75 1 16 C-0.98930589 14.09358185 -1.92722517 12.58430809 -2.26953125 9.8359375 C-2.38174068 3.57261102 -2.38174068 3.57261102 0 0 Z " fill="#FDF3F4" transform="translate(91,21)"/>
<path d="M0 0 C2.375 0.8125 2.375 0.8125 3.375 2.8125 C3.49614921 4.45505791 3.55040767 6.10302478 3.5625 7.75 C3.57667969 8.62527344 3.59085938 9.50054687 3.60546875 10.40234375 C3.375 12.8125 3.375 12.8125 1.375 15.8125 C-1.75 16 -1.75 16 -4.625 15.8125 C-5.91504296 13.23241408 -5.82910224 11.25508426 -5.875 8.375 C-5.90078125 7.40691406 -5.9265625 6.43882813 -5.953125 5.44140625 C-5.625 2.8125 -5.625 2.8125 -4.2734375 0.953125 C-2.625 -0.1875 -2.625 -0.1875 0 0 Z " fill="#FDF7F8" transform="translate(60.625,22.1875)"/>
<path d="M0 0 C1.22617727 3.67853181 1.02899914 6.78203627 0.9375 10.625 C0.88864801 13.1512134 0.88864801 13.1512134 2 16 C1.34 16 0.68 16 0 16 C-0.33 17.32 -0.66 18.64 -1 20 C-1 18.35 -1 16.7 -1 15 C-2.65 15 -4.3 15 -6 15 C-6 10.38 -6 5.76 -6 1 C-4.02 0.67 -2.04 0.34 0 0 Z " fill="#FCF0F1" transform="translate(198,27)"/>
<path d="M0 0 C6.27 0.33 12.54 0.66 19 1 C18.01 2.485 18.01 2.485 17 4 C14.67284 4.37400786 12.33882138 4.70764733 10 5 C9.34 5.66 8.68 6.32 8 7 C5.5625 7.375 5.5625 7.375 3 7 C1.1875 5.1875 1.1875 5.1875 0 3 C0 2.01 0 1.02 0 0 Z " fill="#FADDE0" transform="translate(120,31)"/>
<path d="M0 0 C0.99 0.66 1.98 1.32 3 2 C3 3.32 3 4.64 3 6 C-0.96 6 -4.92 6 -9 6 C-8.67 4.35 -8.34 2.7 -8 1 C-5.22899606 -0.38550197 -3.0665294 -0.1877467 0 0 Z " fill="#FBFCF8" transform="translate(122,72)"/>
<path d="M0 0 C2.00720923 0.28674418 4.0085944 0.61866701 6 1 C6.33 2.32 6.66 3.64 7 5 C4.03 5 1.06 5 -2 5 C-1 1 -1 1 0 0 Z " fill="#FEF7F8" transform="translate(123,21)"/>
<path d="M0 0 C0.33 0 0.66 0 1 0 C1.33 3.63 1.66 7.26 2 11 C1.01 11.33 0.02 11.66 -1 12 C-0.67 8.04 -0.34 4.08 0 0 Z " fill="#D6E8B7" transform="translate(39,79)"/>
</svg>
